<svg xmlns="http://www.w3.org/2000/svg" width="30.405" height="30" viewBox="0 0 30.405 30">
  <g id="Karigars" transform="translate(-913.001 -38)">
    <path id="Path_512" data-name="Path 512" d="M15.216,21.051a5.876,5.876,0,0,0,1.789-.28l3.437,3.434,3.764-3.763L20.771,17a5.849,5.849,0,0,0-1.425-5.9,5.781,5.781,0,0,0-4.114-1.7,5.884,5.884,0,0,0-2.518.569.4.4,0,0,0-.111.645l3.616,3.617a1.406,1.406,0,0,1,0,1.993,1.44,1.44,0,0,1-1.992,0L10.609,12.6a.4.4,0,0,0-.645.111,5.824,5.824,0,0,0,5.251,8.338Z" transform="translate(903.806 28.604)"/>
    <path id="Path_513" data-name="Path 513" d="M157.7,151.869a5.877,5.877,0,0,0-1.792.281l-3.8-3.8-3.766,3.766,3.8,3.8a5.855,5.855,0,0,0,1.425,5.9,5.783,5.783,0,0,0,4.114,1.7,5.886,5.886,0,0,0,2.519-.569.4.4,0,0,0,.111-.645l-3.616-3.617a1.4,1.4,0,0,1,0-1.992,1.439,1.439,0,0,1,1.991,0l3.616,3.616a.4.4,0,0,0,.645-.111,5.823,5.823,0,0,0-5.249-8.338Z" transform="translate(779.684 -95.525)"/>
    <path id="Path_514" data-name="Path 514" d="M127.288,20.539s.629.551,1.148.294c.586-.295,2.238,1.333,2.765,1.714l.012,0-.288.289a.967.967,0,1,0,1.368,1.367l2.281-2.278A.968.968,0,0,0,133.2,20.56l-.38.379c-.315-.433-.838-1.172-.771-1.417.278-1.072-1.907-3.6-1.907-3.6-5.427-5.426-9.051-5.3-10.776-4.709-.692.238-.564.389.155.516,5.232.913,5.881,4,4.994,5.189-.341.46.156,1.014.156,1.014l.187.186-8.834,8.832a1.738,1.738,0,0,1,.339.257l1.486,1.485a1.727,1.727,0,0,1,.255.336l8.834-8.832Z" transform="translate(808.55 27.232)"/>
    <path id="Path_515" data-name="Path 515" d="M18.822,166.858a.92.92,0,0,0-1.23-.044l-9.817,8.8a.772.772,0,0,0-.043,1.144l2.674,2.672a.772.772,0,0,0,1.143-.04l8.8-9.82a.918.918,0,0,0-.045-1.228Z" transform="translate(905.501 -111.828)"/>
  </g>
</svg>
