<svg xmlns="http://www.w3.org/2000/svg" width="24.883" height="30" viewBox="0 0 24.883 30">
  <g id="marketing_exp." transform="translate(-598 -306.89)">
    <g id="Group_2709" data-name="Group 2709" transform="translate(598 306.89)">
      <g id="money-bag-with-dollar-symbol" transform="translate(0 0)">
        <g id="Group_2708" data-name="Group 2708" transform="translate(0 0)">
          <g id="Group_2701" data-name="Group 2701" transform="translate(13.068 19.279)">
            <path id="Path_504" data-name="Path 504" d="M222.774,273.757a1.426,1.426,0,0,0-.4-.291,4.829,4.829,0,0,0-1.014-.358v2.684a1.906,1.906,0,0,0,1.5-.792h0a1.226,1.226,0,0,0,.112-.838A.843.843,0,0,0,222.774,273.757Z" transform="translate(-221.36 -273.108)"/>
          </g>
          <g id="Group_2702" data-name="Group 2702" transform="translate(14.568 21.17)">
            <path id="Path_505" data-name="Path 505" d="M242.6,299.905l0-.005h0Z" transform="translate(-242.604 -299.9)"/>
          </g>
          <g id="Group_2703" data-name="Group 2703" transform="translate(10.25 14.973)">
            <path id="Path_506" data-name="Path 506" d="M181.622,212.771a1.006,1.006,0,0,0-.174.472,1.131,1.131,0,0,0,.058.521.836.836,0,0,0,.325.357,2.536,2.536,0,0,0,.483.249c.141.057.3.111.47.163v-2.428A1.853,1.853,0,0,0,181.622,212.771Z" transform="translate(-181.441 -212.106)"/>
          </g>
          <g id="Group_2704" data-name="Group 2704" transform="translate(14.571 21.151)">
            <path id="Path_507" data-name="Path 507" d="M242.658,299.619l-.011.02h0Z" transform="translate(-242.647 -299.619)"/>
          </g>
          <g id="Group_2705" data-name="Group 2705" transform="translate(14.596 21.124)">
            <path id="Path_508" data-name="Path 508" d="M243,299.246Z" transform="translate(-243.004 -299.244)"/>
          </g>
          <g id="Group_2706" data-name="Group 2706">
            <path id="Path_509" data-name="Path 509" d="M50.252,6.528C52.534,4.611,54.059.292,53.12.1c-1.247-.251-3.955.85-5.263,1.044C46,1.371,43.979-.866,42.844.381c-.923,1.014.662,4.7,3.14,6.307-7.395,3.634-17.788,21.879.344,23.2C71.417,31.722,58.854,10.069,50.252,6.528Zm2.155,14.389a2.638,2.638,0,0,1-1.018,1.791,3.889,3.889,0,0,1-2.083.736v.786a.738.738,0,1,1-1.476,0V23.37c-.127-.024-.253-.053-.378-.087a3.623,3.623,0,0,1-1.805-1.111,3.254,3.254,0,0,1-.556-.919c-.034-.088-.065-.177-.092-.267a1.37,1.37,0,0,1-.058-.25.738.738,0,0,1,1.435-.306c.028.085.047.172.079.256a1.644,1.644,0,0,0,.113.242,1.881,1.881,0,0,0,.324.415,2.2,2.2,0,0,0,.939.512v-2.92A5.252,5.252,0,0,1,45.9,18.1a2.251,2.251,0,0,1-.653-.785,2.456,2.456,0,0,1-.228-1.056,2.517,2.517,0,0,1,.221-1.07,2.608,2.608,0,0,1,.606-.831,3.7,3.7,0,0,1,1.99-.882v-.816a.738.738,0,1,1,1.476,0v.811q.145.018.288.044a3.645,3.645,0,0,1,1.927.935,2.816,2.816,0,0,1,.59.848,2.7,2.7,0,0,1,.1.27,1.64,1.64,0,0,1,.069.263.738.738,0,0,1-1.419.373c-.031-.081-.046-.166-.078-.246a1.3,1.3,0,0,0-.121-.232,1.408,1.408,0,0,0-.349-.366,2.392,2.392,0,0,0-1.013-.4v2.794a9.369,9.369,0,0,1,1.261.374,2.947,2.947,0,0,1,1.538,1.2c-.052-.092-.1-.181,0,0s.054.095,0,0A2.632,2.632,0,0,1,52.406,20.916Z" transform="translate(-36.238 0)"/>
          </g>
          <g id="Group_2707" data-name="Group 2707" transform="translate(14.549 21.189)">
            <path id="Path_510" data-name="Path 510" d="M242.348,300.169l-.011.02Z" transform="translate(-242.337 -300.169)"/>
          </g>
        </g>
      </g>
      <rect id="Rectangle_1178" data-name="Rectangle 1178" width="11.55" height="15.626" transform="translate(6.594 10.493)"/>
    </g>
    <g id="rupee-indian" transform="translate(606.347 319.196)">
      <path id="Path_511" data-name="Path 511" d="M80.914,2.909a.284.284,0,0,0-.21-.082h-1.56a3.157,3.157,0,0,0-.584-1.313h2.125a.28.28,0,0,0,.292-.292V.292A.281.281,0,0,0,80.686,0H73.1a.281.281,0,0,0-.292.292V1.5A.3.3,0,0,0,73.1,1.8H74.42q1.924,0,2.444,1.031H73.1a.281.281,0,0,0-.292.292v.93a.281.281,0,0,0,.292.292h3.895a1.782,1.782,0,0,1-.935,1.14,4.116,4.116,0,0,1-1.938.392H73.1a.3.3,0,0,0-.292.292V7.324a.273.273,0,0,0,.082.2q1.751,1.861,4.542,5.208a.269.269,0,0,0,.228.109h1.778a.265.265,0,0,0,.265-.164.249.249,0,0,0-.037-.31Q77,9.1,75.478,7.479a4.626,4.626,0,0,0,2.517-1,3.41,3.41,0,0,0,1.177-2.134H80.7A.281.281,0,0,0,81,4.05v-.93A.284.284,0,0,0,80.914,2.909Z" transform="translate(-72.806 0)" fill="#fff"/>
    </g>
  </g>
</svg>
