<svg xmlns="http://www.w3.org/2000/svg" width="30" height="30" viewBox="0 0 30 30">
  <g id="Pending_Redeem_Request" data-name="Pending Redeem Request" transform="translate(-476 -38)">
    <path id="Path_499" data-name="Path 499" d="M8.434,249.31a4.644,4.644,0,1,0-5.7,0A5.58,5.58,0,0,0,0,254.118V256a.879.879,0,0,0,.879.879h9.414a.879.879,0,0,0,.879-.879v-1.883a5.58,5.58,0,0,0-2.738-4.808ZM2.7,245.645a2.887,2.887,0,1,1,2.887,2.887A2.89,2.89,0,0,1,2.7,245.645Zm6.715,9.477H1.758v-1a3.828,3.828,0,0,1,7.656,0v1Zm0,0" transform="translate(476 -188.88)"/>
    <path id="Path_500" data-name="Path 500" d="M207.8,0H196.5a3.7,3.7,0,0,0-3.7,3.7V20.648a.88.88,0,0,0,1.406.7l3.531-2.648H207.8a3.7,3.7,0,0,0,3.7-3.7V3.7A3.7,3.7,0,0,0,207.8,0Zm1.945,15a1.944,1.944,0,0,1-1.945,1.945H197.445a.88.88,0,0,0-.527.176l-2.359,1.769V3.7A1.944,1.944,0,0,1,196.5,1.757h11.3A1.944,1.944,0,0,1,209.746,3.7Zm0,0" transform="translate(294.497 38)"/>
    <path id="Path_501" data-name="Path 501" d="M267.359,80.332h-9.414a.879.879,0,1,0,0,1.758h9.414a.879.879,0,1,0,0-1.758Zm0,0" transform="translate(233.997 -37.625)"/>
    <path id="Path_502" data-name="Path 502" d="M267.359,144.6h-9.414a.879.879,0,0,0,0,1.758h9.414a.879.879,0,0,0,0-1.758Zm0,0" transform="translate(233.997 -98.13)"/>
    <path id="Path_503" data-name="Path 503" d="M262.652,208.867h-4.707a.879.879,0,0,0,0,1.758h4.707a.879.879,0,0,0,0-1.758Zm0,0" transform="translate(233.997 -158.629)"/>
  </g>
</svg>
