<svg xmlns="http://www.w3.org/2000/svg" width="30" height="30" viewBox="0 0 30 30">
  <g id="pyment_due" transform="translate(-0.002 0)">
    <g id="Group_2691" data-name="Group 2691" transform="translate(0.001 0.001)">
      <g id="Group_2690" data-name="Group 2690" transform="translate(0 0)">
        <path id="Path_494" data-name="Path 494" d="M29.744.258a.879.879,0,0,0-1.243,0l-2.56,2.56a2.643,2.643,0,0,0-.5-.179L17.489.674a2.65,2.65,0,0,0-2.5.694L.772,15.556a2.64,2.64,0,0,0,0,3.729l9.944,9.944a2.64,2.64,0,0,0,3.729,0L28.634,15.017a2.65,2.65,0,0,0,.694-2.5L27.363,4.558a2.649,2.649,0,0,0-.179-.5l2.56-2.56A.879.879,0,0,0,29.744.258ZM27.622,12.939a.883.883,0,0,1-.231.835L13.2,27.986a.88.88,0,0,1-1.243,0L2.015,18.042a.88.88,0,0,1,0-1.243L16.228,2.61a.884.884,0,0,1,.623-.257.871.871,0,0,1,.211.026l7.472,1.845L22.418,6.341a2.637,2.637,0,1,0,1.243,1.243l2.117-2.117ZM21.9,9.341a.879.879,0,1,1,0-1.243h0A.88.88,0,0,1,21.9,9.341Z" transform="translate(-0.001 -0.001)"/>
      </g>
    </g>
    <g id="Group_2693" data-name="Group 2693" transform="translate(9.945 9.813)">
      <g id="Group_2692" data-name="Group 2692">
        <path id="Path_495" data-name="Path 495" d="M174.212,168.242a2.637,2.637,0,1,0,0,3.729A2.64,2.64,0,0,0,174.212,168.242Zm-1.243,2.486a.879.879,0,1,1,0-1.243A.88.88,0,0,1,172.969,170.728Z" transform="translate(-169.712 -167.471)"/>
      </g>
    </g>
    <g id="Group_2695" data-name="Group 2695" transform="translate(11.188 18.512)">
      <g id="Group_2694" data-name="Group 2694">
        <path id="Path_496" data-name="Path 496" d="M195.426,316.71a2.637,2.637,0,1,0,0,3.729A2.635,2.635,0,0,0,195.426,316.71Zm-1.243,2.486a.879.879,0,1,1,0-1.243A.878.878,0,0,1,194.183,319.2Z" transform="translate(-190.926 -315.937)"/>
      </g>
    </g>
    <g id="Group_2697" data-name="Group 2697" transform="translate(6.73 15.299)">
      <g id="Group_2696" data-name="Group 2696">
        <path id="Path_497" data-name="Path 497" d="M127.775,261.873a.879.879,0,0,0-.971-.777l-11.187,1.243a.879.879,0,0,0,.1,1.753.9.9,0,0,0,.1-.005L127,262.844A.879.879,0,0,0,127.775,261.873Z" transform="translate(-114.835 -261.091)"/>
      </g>
    </g>
  </g>
</svg>
